<svg width="106" height="56" viewBox="0 0 106 56" fill="none" xmlns="http://www.w3.org/2000/svg">
<g clip-path="url(#clip0_6_4807)">
<path d="M25.31 2.16998C45.55 1.90998 65.79 2.37998 85.99 3.58998C91.79 3.93998 97.58 4.34998 103.37 4.80998L104.81 2.70998C78.14 3.58998 51.49 4.99998 24.89 6.95998C17.28 7.51998 9.67999 8.12998 2.07999 8.76998C1.42999 8.82998 0.299993 9.19998 0.0499931 9.88998C-0.200007 10.58 0.529993 10.82 1.10999 10.84C23.19 11.65 45.32 12.46 67.25 15.34C73.46 16.16 79.66 17.14 85.81 18.33L87.65 16.29C69.79 17.25 51.93 18.2 34.06 19.15C33.28 19.19 32.26 19.36 31.75 20.02C31.36 20.53 31.49 21.09 32.22 21.19C46.5 23.12 60.79 25.04 75.07 26.96L75.47 25.2C65.14 29.54 53.68 29.28 42.69 29.06C41.9 29.04 40.68 29.33 40.25 30.07C39.82 30.81 40.64 31.1 41.25 31.16C49.38 31.97 57.41 33.56 65.25 35.83L66.14 33.9C60.61 35.25 55.08 36.6 49.55 37.95C48.75 38.15 46.96 39.55 48.66 39.88C54.93 41.1 60.98 43.12 66.73 45.92L67.47 44.27C62.88 45.84 58.05 46.72 53.2 46.91C52.42 46.94 51.38 47.13 50.87 47.79C50.47 48.31 50.61 48.86 51.34 48.97C58.05 49.97 64.52 52.05 70.55 55.19C71.3 55.58 72.48 55.28 73.15 54.85C73.66 54.53 74.25 53.82 73.47 53.42C67.26 50.18 60.55 47.98 53.61 46.96L51.75 49.02C57.63 48.79 63.36 47.71 68.92 45.8C69.48 45.61 70.67 44.64 69.66 44.15C63.71 41.25 57.41 39.15 50.91 37.89L50.02 39.82C55.55 38.47 61.08 37.12 66.61 35.77C67.51 35.55 69.11 34.31 67.5 33.84C59.38 31.48 51.08 29.92 42.67 29.08L41.23 31.18C53.25 31.42 65.62 31.49 76.9 26.74C77.6 26.44 78.75 25.18 77.3 24.98C63.02 23.06 48.73 21.13 34.45 19.2L32.6 21.25C50.46 20.29 68.33 19.34 86.19 18.38C86.97 18.34 87.99 18.17 88.5 17.51C88.91 16.98 88.74 16.48 88.03 16.34C66.12 12.11 43.83 10.5 21.57 9.50998C15.22 9.22998 8.85999 8.98998 2.50999 8.75998L1.53999 10.82C27.98 8.55998 54.46 6.83998 80.97 5.66998C88.42 5.33998 95.87 5.05998 103.33 4.80998C104.13 4.77998 105.33 4.56998 105.77 3.79998C106.21 3.02998 105.39 2.75998 104.77 2.70998C84.64 1.08998 64.41 0.179984 44.17 0.0199842C38.36 -0.0200158 32.56 -0.0100158 26.75 0.0699842C25.95 0.0799842 24.74 0.319984 24.3 1.07998C23.86 1.83998 24.66 2.17998 25.3 2.16998H25.31Z" fill="#FF0000"/>
</g>
<defs>
<clipPath id="clip0_6_4807">
<rect width="105.94" height="55.38" fill="white"/>
</clipPath>
</defs>
</svg>
