<svg width="263" height="79" viewBox="0 0 263 79" fill="black" xmlns="http://www.w3.org/2000/svg">
<g clip-path="url(#clip0_9_54)">
<path d="M260.276 5.05044L70.2667 7.66833C52.5021 7.92316 34.7375 8.15484 16.9729 8.40968L14.6214 3.42874C73.8057 7.11231 133.013 10.7959 192.198 14.4563C208.821 15.4988 225.468 16.5182 242.092 17.5607C243.652 17.6534 246.376 18.6032 246.982 20.2249C247.587 21.8466 245.817 22.4953 244.42 22.4953C184.002 22.9123 123.514 23.3525 63.1888 27.0824C46.2857 28.1249 29.4058 29.4223 12.5492 31.0672L10.2209 26.1094C46.2624 30.3721 82.3038 34.6117 118.345 38.8745C119.928 39.0598 122.629 39.8707 123.258 41.5619C123.887 43.2531 122.094 43.7859 120.697 43.8323C91.9661 44.8053 63.282 46.6818 34.6676 49.4619L32.3161 44.4809C59.1144 47.0293 85.8661 49.9484 112.594 53.2845C114.201 53.493 116.925 54.2806 117.554 55.995C118.182 57.7094 116.366 58.2654 114.969 58.2886C96.7856 58.6824 78.7881 61.3466 61.2796 66.2349L59.1376 61.5783C70.3133 63.8719 81.4889 66.1422 92.6646 68.4589C94.2245 68.7833 98.5551 71.2853 95.6447 72.8839C89.7077 76.1504 83.2584 78.166 76.5297 78.9537C74.4343 79.1853 71.8499 78.8147 70.2667 77.2856C69.056 76.1273 69.1026 74.3897 71.1049 74.1581C77.2748 73.4399 83.0489 71.5633 88.4737 68.5285L91.4539 72.9534C80.2782 70.6598 69.1259 68.3663 57.9502 66.0496C55.7384 65.5862 51.92 62.4818 55.8082 61.393C73.9454 56.3657 92.6646 53.6551 111.5 53.2381L113.852 58.2422C87.1233 54.9293 60.3716 51.9639 33.5734 49.4155C31.9902 49.2765 29.2661 48.3962 28.6608 46.7282C28.0554 45.0601 29.8482 44.5736 31.2218 44.4346C59.8361 41.6545 88.5203 39.778 117.251 38.805L119.603 43.7628C83.5611 39.5 47.5196 35.2372 11.4549 30.9977C9.8717 30.8123 7.17093 30.0015 6.56558 28.3103C5.96024 26.6191 7.75299 26.1557 9.12666 26.0399C69.2888 20.2249 129.754 18.6032 190.172 17.9314C207.122 17.746 224.048 17.6302 240.998 17.5144L243.326 22.449C184.142 18.7654 124.958 15.105 65.7499 11.4446L15.8553 8.36334C14.2954 8.27067 11.5248 7.29765 10.9427 5.67595C10.3606 4.05425 12.1068 3.40557 13.5038 3.3824C76.8324 2.47888 140.161 1.6217 203.49 0.741346L256.783 -2.57127e-06C258.693 -0.0231697 261.673 0.648678 262.697 2.43255C263.722 4.21642 261.813 5.02727 260.276 5.05044Z" fill="white"/>
</g>
<defs>
<clipPath id="clip0_9_54">
<rect width="263" height="79" fill="black" transform="matrix(-1 0 0 1 263 0)"/>
</clipPath>
</defs>
</svg>
