<svg width="102" height="65" viewBox="0 0 102 65" fill="none" xmlns="http://www.w3.org/2000/svg">
<g clip-path="url(#clip0_6_4559)">
<path d="M5.49002 62.32C2.86002 54.64 4.51002 44.94 10.75 39.39C13.32 37.1 17.08 35.64 19.85 38.44C21.72 40.31 22.99 44.11 20.65 46.12L24.47 45.9C21.7 36.92 24.9 27.02 31.4 20.46C34.59 17.24 38.42 14.73 42.58 12.92C44.67 12.01 46.88 11.16 49.12 10.7C51.17 10.28 52.98 10.94 54.03 12.81C56.71 17.57 52.81 22.32 49.71 25.66L53.53 25.44C50.71 20.51 53.48 15.07 57.42 11.76C61.66 8.20001 67.06 5.72001 72.34 4.15001C76.85 2.81001 81.65 1.91001 86.35 2.68001C90.32 3.33001 94.48 5.20001 96.23 9.07001C98.9 14.97 95.17 21.2 91.77 25.91C91.19 26.71 92.26 27.09 92.89 27.12C93.84 27.16 95.01 26.77 95.61 26C99.18 21.34 102.89 14.98 100.86 8.92001C99.29 4.24001 94.84 1.67001 90.26 0.640014C84.78 -0.589986 79.09 0.140014 73.71 1.51001C67.32 3.14001 61.05 5.90001 55.71 9.79001C50.66 13.46 45.68 20.22 49.31 26.58C49.98 27.74 52.35 27.19 53.13 26.36C56.45 22.79 60.39 18.3 58.84 13.03C58.19 10.82 56.6 9.07001 54.36 8.45001C51.54 7.67001 48.51 8.52001 45.81 9.38001C35.58 12.67 25.99 19.14 21.55 29.24C19.1 34.81 18.47 41.19 20.28 47.04C20.71 48.42 23.42 47.4 24.1 46.82C26.41 44.84 26.75 41.69 25.41 39.03C23.86 35.95 20.89 34.37 17.47 34.46C8.92001 34.69 2.63002 42.38 0.730016 50.15C-0.339984 54.53 -0.159984 59.19 1.30002 63.45C1.80002 64.93 6.02002 63.72 5.53002 62.32H5.49002Z" fill="#7E8EF1" fill-opacity="0.77"/>
</g>
<defs>
<clipPath id="clip0_6_4559">
<rect width="101.41" height="64.13" fill="white"/>
</clipPath>
</defs>
</svg>
